<svg width="29" height="32" viewBox="0 0 29 32" fill="none" xmlns="http://www.w3.org/2000/svg">
<path d="M10.8106 7.54309L12.8889 5.46369V24.0023C12.8889 24.4265 13.0586 24.8334 13.3608 25.1334C13.6629 25.4333 14.0727 25.6019 14.5 25.6019C14.9273 25.6019 15.3371 25.4333 15.6392 25.1334C15.9414 24.8334 16.1111 24.4265 16.1111 24.0023V5.46369L18.1894 7.54309C18.3392 7.69301 18.5174 7.81201 18.7137 7.89322C18.9101 7.97442 19.1206 8.01623 19.3333 8.01623C19.546 8.01623 19.7566 7.97442 19.9529 7.89322C20.1493 7.81201 20.3274 7.69301 20.4772 7.54309C20.6282 7.39439 20.7481 7.21748 20.8299 7.02256C20.9117 6.82765 20.9538 6.61858 20.9538 6.40742C20.9538 6.19626 20.9117 5.98719 20.8299 5.79228C20.7481 5.59736 20.6282 5.42045 20.4772 5.27175L15.6439 0.47314C15.4941 0.323218 15.3159 0.204222 15.1196 0.123015C14.9233 0.0418091 14.7127 0 14.5 0C14.2873 0 14.0767 0.0418091 13.8804 0.123015C13.6841 0.204222 13.5059 0.323218 13.3561 0.47314L8.52278 5.27175C8.2194 5.57295 8.04896 5.98146 8.04896 6.40742C8.04896 6.83338 8.2194 7.24189 8.52278 7.54309C8.82616 7.84429 9.23763 8.0135 9.66667 8.0135C10.0957 8.0135 10.5072 7.84429 10.8106 7.54309ZM24.1667 11.206H20.9444C20.5172 11.206 20.1074 11.3746 19.8052 11.6745C19.5031 11.9745 19.3333 12.3813 19.3333 12.8056C19.3333 13.2298 19.5031 13.6366 19.8052 13.9366C20.1074 14.2366 20.5172 14.4051 20.9444 14.4051H24.1667C24.594 14.4051 25.0038 14.5736 25.3059 14.8736C25.608 15.1736 25.7778 15.5804 25.7778 16.0046V27.2014C25.7778 27.6256 25.608 28.0325 25.3059 28.3324C25.0038 28.6324 24.594 28.8009 24.1667 28.8009H4.83333C4.40604 28.8009 3.99625 28.6324 3.69411 28.3324C3.39196 28.0325 3.22222 27.6256 3.22222 27.2014V16.0046C3.22222 15.5804 3.39196 15.1736 3.69411 14.8736C3.99625 14.5736 4.40604 14.4051 4.83333 14.4051H8.05556C8.48285 14.4051 8.89264 14.2366 9.19478 13.9366C9.49693 13.6366 9.66667 13.2298 9.66667 12.8056C9.66667 12.3813 9.49693 11.9745 9.19478 11.6745C8.89264 11.3746 8.48285 11.206 8.05556 11.206H4.83333C3.55145 11.206 2.32208 11.7116 1.41565 12.6115C0.509225 13.5114 0 14.732 0 16.0046V27.2014C0 28.4741 0.509225 29.6946 1.41565 30.5945C2.32208 31.4944 3.55145 32 4.83333 32H24.1667C25.4485 32 26.6779 31.4944 27.5844 30.5945C28.4908 29.6946 29 28.4741 29 27.2014V16.0046C29 14.732 28.4908 13.5114 27.5844 12.6115C26.6779 11.7116 25.4485 11.206 24.1667 11.206Z" fill="white"/>
</svg>
